M48
; DRILL file {KiCad 8.0.6} date 2024-12-28T01:58:16+0200
; FORMAT={-:-/ absolute / metric / decimal}
; #@! TF.CreationDate,2024-12-28T01:58:16+02:00
; #@! TF.GenerationSoftware,Kicad,Pcbnew,8.0.6
; #@! TF.FileFunction,Plated,1,2,PTH
FMAT,2
METRIC
; #@! TA.AperFunction,Plated,PTH,ViaDrill
T1C0.300
; #@! TA.AperFunction,Plated,PTH,ViaDrill
T2C0.700
; #@! TA.AperFunction,Plated,PTH,ComponentDrill
T3C0.700
; #@! TA.AperFunction,Plated,PTH,ComponentDrill
T4C0.762
; #@! TA.AperFunction,Plated,PTH,ComponentDrill
T5C0.800
; #@! TA.AperFunction,Plated,PTH,ComponentDrill
T6C0.900
; #@! TA.AperFunction,Plated,PTH,ComponentDrill
T7C0.950
; #@! TA.AperFunction,Plated,PTH,ComponentDrill
T8C1.000
; #@! TA.AperFunction,Plated,PTH,ComponentDrill
T9C1.016
; #@! TA.AperFunction,Plated,PTH,ComponentDrill
T10C1.100
; #@! TA.AperFunction,Plated,PTH,ComponentDrill
T11C1.520
; #@! TA.AperFunction,Plated,PTH,ViaDrill
T12C3.000
%
G90
G05
T1
X165.5Y-55.5
T2
X42.87Y-85.542
X51.816Y-91.44
X58.928Y-106.532
X62.23Y-56.95
X65.453Y-105.664
X68.072Y-59.358
X68.072Y-66.26
X68.22Y-100.584
X71.12Y-59.358
X72.136Y-72.136
X74.0Y-104.768
X75.184Y-72.136
X75.3Y-126.7
X75.47Y-57.41
X75.95Y-66.54
X76.6Y-95.43
X82.39Y-110.31
X83.9Y-119.6
X84.599Y-115.317
X85.44Y-93.39
X85.61Y-123.532
X87.28Y-104.35
X90.07Y-104.36
X90.07Y-109.27
X91.99Y-120.03
X99.27Y-90.126
X99.47Y-99.457
X100.2Y-86.9
X100.823Y-102.855
X101.8Y-80.2
X105.5Y-86.9
X110.7Y-97.0
X111.76Y-78.232
X113.4Y-99.6
X116.84Y-117.856
X167.64Y-57.912
X167.64Y-59.944
X175.34Y-126.49
X187.6Y-56.71
X188.71Y-54.66
X194.94Y-56.82
X196.88Y-55.02
X205.627Y-57.747
X206.31Y-55.61
X212.43Y-57.82
T3
X87.63Y-76.2
X95.25Y-76.2
X98.806Y-76.2
X103.18Y-110.9
X103.18Y-114.8
X103.18Y-118.7
X106.426Y-76.2
X110.8Y-110.9
X110.8Y-114.8
X110.8Y-118.7
T4
X50.673Y-108.839
X50.673Y-111.379
X50.673Y-113.919
X50.673Y-116.459
X50.673Y-118.999
X50.673Y-121.539
X50.673Y-124.079
X50.673Y-126.619
X67.945Y-108.839
X67.945Y-111.379
X67.945Y-113.919
X67.945Y-116.459
X67.945Y-118.999
X67.945Y-121.539
X67.945Y-124.079
X67.945Y-126.619
T5
X72.364Y-85.108
X72.364Y-87.648
X72.364Y-90.188
X72.364Y-92.728
X72.364Y-95.268
X72.364Y-97.808
X72.364Y-100.348
X72.384Y-107.653
X72.384Y-110.193
X72.384Y-112.733
X72.384Y-115.273
X72.384Y-117.813
X72.384Y-120.353
X72.384Y-122.893
X79.984Y-85.108
X79.984Y-87.648
X79.984Y-90.188
X79.984Y-92.728
X79.984Y-95.268
X79.984Y-97.808
X79.984Y-100.348
X80.004Y-107.653
X80.004Y-110.193
X80.004Y-112.733
X80.004Y-115.273
X80.004Y-117.813
X80.004Y-120.353
X80.004Y-122.893
X87.376Y-69.088
X87.884Y-107.653
X87.884Y-110.193
X87.884Y-112.733
X87.884Y-115.273
X87.884Y-117.813
X87.884Y-120.353
X87.884Y-122.893
X87.984Y-85.108
X87.984Y-87.648
X87.984Y-90.188
X87.984Y-92.728
X87.984Y-95.268
X87.984Y-97.808
X87.984Y-100.348
X89.916Y-69.088
X92.456Y-69.088
X95.504Y-107.653
X95.504Y-110.193
X95.504Y-112.733
X95.504Y-115.273
X95.504Y-117.813
X95.504Y-120.353
X95.504Y-122.893
X95.604Y-85.108
X95.604Y-87.648
X95.604Y-90.188
X95.604Y-92.728
X95.604Y-95.268
X95.604Y-97.808
X95.604Y-100.348
X97.536Y-69.088
X100.076Y-69.088
X102.616Y-69.088
X103.124Y-99.568
X103.124Y-102.108
X103.124Y-104.648
X103.124Y-107.188
X110.744Y-99.568
X110.744Y-102.108
X110.744Y-104.648
X110.744Y-107.188
T6
X118.477Y-71.312
X118.477Y-73.812
X118.477Y-76.312
X118.477Y-78.812
X118.477Y-81.312
X118.477Y-83.812
X118.477Y-86.312
X118.477Y-88.812
X118.477Y-91.312
X118.477Y-93.812
X118.477Y-96.312
X118.477Y-98.812
X118.477Y-101.312
X118.477Y-103.812
X118.477Y-106.312
X118.477Y-108.812
X118.477Y-111.312
X118.477Y-113.812
X126.464Y-71.027
X126.464Y-73.567
X126.464Y-76.107
X126.464Y-78.647
X126.464Y-81.187
X126.464Y-83.727
X126.464Y-86.267
X126.464Y-88.807
X126.464Y-91.347
X126.464Y-93.887
X126.464Y-96.427
X126.464Y-98.967
X126.464Y-101.507
X126.464Y-104.047
X126.464Y-106.587
X126.464Y-109.127
X126.464Y-111.667
X126.464Y-114.207
X129.004Y-71.027
X129.004Y-73.567
X129.004Y-76.107
X129.004Y-78.647
X129.004Y-81.187
X129.004Y-83.727
X129.004Y-86.267
X129.004Y-88.807
X129.004Y-91.347
X129.004Y-93.887
X129.004Y-96.427
X129.004Y-98.967
X129.004Y-101.507
X129.004Y-104.047
X129.004Y-106.587
X129.004Y-109.127
X129.004Y-111.667
X129.004Y-114.207
X131.798Y-119.287
X131.984Y-124.424
X134.338Y-119.287
X134.484Y-124.424
X136.278Y-64.998
X136.624Y-71.027
X136.624Y-119.287
X136.984Y-124.424
X138.778Y-64.998
X139.164Y-71.027
X139.164Y-119.287
X139.484Y-124.424
X141.278Y-64.998
X141.704Y-71.027
X141.704Y-119.287
X141.984Y-124.424
X143.778Y-64.998
X144.244Y-71.027
X144.244Y-119.287
X144.484Y-124.424
X146.278Y-64.998
X146.784Y-71.027
X146.784Y-119.287
X146.984Y-124.424
X148.778Y-64.998
X149.324Y-71.027
X149.324Y-119.287
X149.484Y-124.424
X151.278Y-64.998
X151.864Y-71.027
X153.778Y-64.998
X154.404Y-71.027
X154.404Y-119.287
X154.484Y-124.424
X156.944Y-119.287
X156.984Y-124.424
X157.614Y-65.078
X159.484Y-71.027
X159.484Y-119.287
X159.484Y-124.424
X160.114Y-65.078
X161.984Y-124.424
X162.024Y-71.027
X162.024Y-119.287
X162.614Y-65.078
X164.484Y-124.424
X164.564Y-71.027
X164.564Y-119.287
X165.114Y-65.078
X166.984Y-124.424
X167.104Y-71.027
X167.104Y-119.287
X167.614Y-65.078
X169.484Y-124.424
X169.644Y-71.027
X169.644Y-119.287
X170.114Y-65.078
X171.984Y-124.424
X172.184Y-71.027
X172.184Y-119.287
X172.614Y-65.078
X174.724Y-71.027
X175.114Y-65.078
X177.264Y-71.027
X177.264Y-119.287
X177.484Y-124.424
X179.444Y-65.024
X179.804Y-119.287
X179.984Y-124.424
X181.328Y-71.027
X181.944Y-65.024
X182.344Y-119.287
X182.484Y-124.424
X183.868Y-71.027
X184.444Y-65.024
X184.884Y-119.287
X184.984Y-124.424
X186.408Y-71.027
X186.944Y-65.024
X187.424Y-119.287
X187.484Y-124.424
X188.948Y-71.027
X189.444Y-65.024
X189.964Y-119.287
X189.984Y-124.424
X191.488Y-71.027
X191.944Y-65.024
X192.484Y-124.424
X192.504Y-119.287
X194.028Y-71.027
X194.444Y-65.024
X194.984Y-124.424
X195.044Y-119.287
X196.568Y-71.027
X196.944Y-65.024
X198.984Y-124.424
X199.108Y-71.027
X199.444Y-65.024
X201.484Y-124.424
X201.648Y-71.027
X201.944Y-65.024
X203.984Y-124.424
X204.188Y-71.027
X205.914Y-65.078
X206.484Y-124.424
X208.414Y-65.078
X208.984Y-124.424
X210.914Y-65.078
X211.484Y-124.424
X213.414Y-65.078
X213.984Y-124.424
X215.914Y-65.078
X216.484Y-124.424
X218.414Y-65.078
X218.984Y-124.424
X220.914Y-65.078
X223.414Y-65.078
X225.914Y-65.078
T7
X65.104Y-52.832
X67.604Y-52.832
X70.104Y-52.832
X81.28Y-52.832
X83.78Y-52.832
X86.28Y-52.832
X97.536Y-52.832
X100.036Y-52.832
X101.92Y-127.0
X102.536Y-52.832
X104.42Y-127.0
X106.92Y-127.0
X109.42Y-127.0
X111.92Y-127.0
X113.792Y-52.832
X114.42Y-127.0
X116.292Y-52.832
X116.92Y-127.0
X118.792Y-52.832
X119.42Y-127.0
X121.92Y-127.0
X124.42Y-127.0
X144.272Y-52.832
X146.772Y-52.832
X149.272Y-52.832
X151.772Y-52.832
X154.272Y-52.832
X156.772Y-52.832
X167.64Y-52.832
X170.14Y-52.832
X172.64Y-52.832
X175.14Y-52.832
X177.64Y-52.832
X180.14Y-52.832
X191.008Y-52.832
X193.508Y-52.832
X196.008Y-52.832
X198.508Y-52.832
X201.008Y-52.832
X203.508Y-52.832
X206.008Y-52.832
X208.508Y-52.832
X219.456Y-52.832
X221.956Y-52.832
X224.456Y-52.832
X226.956Y-52.832
T8
X66.04Y-84.328
X66.04Y-89.328
X66.04Y-94.328
X66.04Y-99.328
X103.244Y-82.296
X103.244Y-88.392
X103.244Y-94.488
X110.744Y-82.296
X110.744Y-88.392
X110.744Y-94.488
X130.048Y-52.832
X132.548Y-52.832
T9
X61.685Y-64.463
X61.685Y-67.003
X61.685Y-69.543
X61.685Y-72.083
X61.685Y-74.623
X61.685Y-77.163
X80.55Y-64.488
X80.55Y-67.028
X80.55Y-69.568
X80.55Y-72.108
X80.55Y-74.648
X80.55Y-77.188
T10
X60.889Y-82.804
X60.889Y-85.344
X60.889Y-87.884
X60.889Y-94.488
X60.889Y-97.028
X60.889Y-99.568
X108.0Y-69.1
X110.54Y-69.1
X113.08Y-69.1
T11
X48.768Y-67.056
X48.768Y-72.136
X48.768Y-78.232
X48.768Y-83.312
X48.768Y-88.392
X48.768Y-94.53
X48.768Y-99.61
T12
X55.8Y-58.9
X55.88Y-114.808
X217.4Y-58.9
X217.4Y-105.2
M30
